<?xml version="1.0" encoding="UTF-8"?>
<svg width="400" height="400" viewBox="0 0 400 400" xmlns="http://www.w3.org/2000/svg">
    <defs>
        <!-- Gradients -->
        <linearGradient id="primaryGradient" x1="0%" y1="0%" x2="100%" y2="100%">
            <stop offset="0%" style="stop-color:#2563eb;stop-opacity:1" />
            <stop offset="100%" style="stop-color:#3b82f6;stop-opacity:1" />
        </linearGradient>
        <linearGradient id="secondaryGradient" x1="100%" y1="0%" x2="0%" y2="100%">
            <stop offset="0%" style="stop-color:#7c3aed;stop-opacity:1" />
            <stop offset="100%" style="stop-color:#8b5cf6;stop-opacity:1" />
        </linearGradient>
        <!-- Glow Effect -->
        <filter id="glow" x="-50%" y="-50%" width="200%" height="200%">
            <feGaussianBlur in="SourceGraphic" stdDeviation="4" result="blur" />
            <feMerge>
                <feMergeNode in="blur" />
                <feMergeNode in="SourceGraphic" />
            </feMerge>
        </filter>
    </defs>

    <style>
        @media (prefers-color-scheme: dark) {
            .logo-text { fill: #f8fafc !important; }
        }
        .swift-symbol {
            animation: float 3s ease-in-out infinite;
        }
        .plus-symbol {
            animation: pulse 2s ease-in-out infinite;
        }
        @keyframes float {
            0%, 100% { transform: translateY(0); }
            50% { transform: translateY(-10px); }
        }
        @keyframes pulse {
            0%, 100% { transform: scale(1); }
            50% { transform: scale(1.1); }
        }
        .logo-text {
            font-family: 'Segoe UI', Arial, sans-serif;
            font-weight: bold;
            fill: #1e293b;
        }
    </style>

    <!-- Background Circle -->
    <circle cx="200" cy="200" r="180" fill="white" opacity="0.1" />

    <!-- Swift Symbol (Stylized S) -->
    <g class="swift-symbol" filter="url(#glow)">
        <path d="M160 100 
                C220 100, 280 140, 280 200
                C280 260, 220 300, 160 300
                C100 300, 120 260, 120 200
                C120 140, 100 100, 160 100
                Z" 
              fill="url(#primaryGradient)" />
        
        <!-- Inner Details -->
        <path d="M200 150
                C230 170, 240 190, 240 200
                C240 210, 230 230, 200 250
                C170 230, 160 210, 160 200
                C160 190, 170 170, 200 150
                Z"
              fill="white" 
              opacity="0.2" />
    </g>

    <!-- Plus Symbol -->
    <g class="plus-symbol" transform="translate(240, 240)" filter="url(#glow)">
        <rect x="-15" y="-40" width="30" height="80" rx="8" fill="url(#secondaryGradient)" />
        <rect x="-40" y="-15" width="80" height="30" rx="8" fill="url(#secondaryGradient)" />
    </g>

    <!-- Text -->
    <text x="200" y="380" text-anchor="middle" class="logo-text" font-size="48">Swift++</text>
</svg>
